<svg xmlns="http://www.w3.org/2000/svg" viewBox="0 0 64 64">
  <rect width="64" height="64" rx="8" fill="#0d0d1a"/>
  <rect x="12" y="12" width="6" height="6" fill="#00ff88"/>
  <rect x="46" y="12" width="6" height="6" fill="#00ff88"/>
  <rect x="20" y="18" width="4" height="4" fill="#00ff88"/>
  <rect x="40" y="18" width="4" height="4" fill="#00ff88"/>
  <rect x="12" y="22" width="40" height="6" fill="#00ff88"/>
  <rect x="8" y="28" width="48" height="6" fill="#00ff88"/>
  <rect x="12" y="34" width="6" height="8" fill="#00ff88"/>
  <rect x="46" y="34" width="6" height="8" fill="#00ff88"/>
  <rect x="22" y="34" width="20" height="6" fill="#00ff88"/>
  <rect x="26" y="34" width="4" height="6" fill="#0d0d1a"/>
  <rect x="34" y="34" width="4" height="6" fill="#0d0d1a"/>
  <rect x="18" y="40" width="6" height="6" fill="#00ff88"/>
  <rect x="40" y="40" width="6" height="6" fill="#00ff88"/>
  <rect x="8" y="46" width="6" height="6" fill="#00ff88"/>
  <rect x="50" y="46" width="6" height="6" fill="#00ff88"/>
  <rect x="18" y="46" width="28" height="6" fill="#00ff88"/>
  <rect x="24" y="46" width="4" height="6" fill="#0d0d1a"/>
  <rect x="36" y="46" width="4" height="6" fill="#0d0d1a"/>
</svg>
